<svg xmlns="http://www.w3.org/2000/svg" width="512" height="512" viewBox="0 0 512 512">
<g>
<path d="M 283.77 445.77 L 283.50 470.50 L 230.00 471.03 L 230.00 421.00 L 176.00 421.00 L 176.00 367.00 L 149.11 367.00 C125.51,367.00 122.14,366.81 121.61,365.42 C121.27,364.55 121.00,352.17 121.00,337.92 L 121.00 312.00 L 67.00 312.00 L 67.00 258.00 L 13.00 258.00 L 13.00 96.00 L 67.00 96.00 L 67.00 42.00 L 174.97 42.00 L 175.23 68.75 L 175.50 95.50 L 202.75 95.77 L 230.00 96.03 L 230.00 150.03 L 282.50 149.50 L 282.77 122.77 L 283.03 96.03 L 310.27 95.77 L 337.50 95.50 L 338.03 42.00 L 444.97 42.00 L 445.50 95.50 L 499.00 96.03 L 499.00 258.00 L 445.00 258.00 L 445.00 312.00 L 391.00 312.00 L 391.00 367.00 L 337.03 367.00 L 336.50 420.50 L 310.27 420.77 L 284.03 421.03 Z" fill="rgb(0,0,0)"/>
<path d="M 0.00 256.00 L 0.00 0.00 L 256.00 0.00 L 512.00 0.00 L 512.00 256.00 L 512.00 512.00 L 256.00 512.00 L 0.00 512.00 L 0.00 256.00 ZM 283.77 445.77 L 284.03 421.03 L 310.27 420.77 L 336.50 420.50 L 336.77 393.75 L 337.03 367.00 L 364.02 367.00 L 391.00 367.00 L 391.00 339.50 L 391.00 312.00 L 418.00 312.00 L 445.00 312.00 L 445.00 285.00 L 445.00 258.00 L 472.00 258.00 L 499.00 258.00 L 499.00 177.02 L 499.00 96.03 L 472.25 95.77 L 445.50 95.50 L 445.23 68.75 L 444.97 42.00 L 391.50 42.00 L 338.03 42.00 L 337.77 68.75 L 337.50 95.50 L 310.27 95.77 L 283.03 96.03 L 282.77 122.77 L 282.50 149.50 L 256.25 149.77 L 230.00 150.03 L 230.00 123.03 L 230.00 96.03 L 202.75 95.77 L 175.50 95.50 L 175.23 68.75 L 174.97 42.00 L 120.98 42.00 L 67.00 42.00 L 67.00 69.00 L 67.00 96.00 L 40.00 96.00 L 13.00 96.00 L 13.00 177.00 L 13.00 258.00 L 40.00 258.00 L 67.00 258.00 L 67.00 285.00 L 67.00 312.00 L 94.00 312.00 L 121.00 312.00 L 121.00 337.92 C121.00,352.17 121.27,364.55 121.61,365.42 C122.14,366.81 125.51,367.00 149.11,367.00 L 176.00 367.00 L 176.00 394.00 L 176.00 421.00 L 203.00 421.00 L 230.00 421.00 L 230.00 446.02 L 230.00 471.03 L 256.75 470.77 L 283.50 470.50 L 283.77 445.77 Z" fill="rgb(254,254,254)"/>
</g>
</svg>